<?xml version="1.0" encoding="UTF-8"?>
<svg version="1.1" xmlns="http://www.w3.org/2000/svg" width="512" height="512">
<path d="M0 0 C6.44674077 5.33307023 10.57833133 11.90559815 11.60546875 20.328125 C12.19606621 29.0394375 10.34165841 37.54899176 4.60546875 44.328125 C2.4765625 44.98046875 2.4765625 44.98046875 0.60546875 45.328125 C0.74984375 44.50570312 0.89421875 43.68328125 1.04296875 42.8359375 C2.94461957 31.39962076 4.07055073 21.97622022 -1.39453125 11.328125 C-5.15365942 7.47731078 -8.51714357 6.18144251 -13.83203125 6.015625 C-27.91076433 6.20006255 -39.82628028 14.16160647 -49.73046875 23.5078125 C-60.46713205 34.87419212 -67.30730914 49.37290368 -73.45703125 63.578125 C-77.83963971 73.6499515 -82.61272416 82.2578917 -90.890625 89.671875 C-92.73065032 91.325432 -92.73065032 91.325432 -92.39453125 94.328125 C-90.62806555 95.3358202 -88.85619302 96.33404214 -87.08203125 97.328125 C-86.09589844 97.885 -85.10976563 98.441875 -84.09375 99.015625 C-81.44510654 100.54677253 -81.44510654 100.54677253 -78.39453125 100.328125 C-76.83086992 98.80700592 -76.83086992 98.80700592 -75.390625 96.7421875 C-74.82021484 95.98091553 -74.24980469 95.21964355 -73.66210938 94.43530273 C-73.05818359 93.61618408 -72.45425781 92.79706543 -71.83203125 91.953125 C-60.04485926 76.45601618 -45.62262825 61.89949693 -25.71875 57.7734375 C-19.99977777 57.02550174 -19.99977777 57.02550174 -17.39453125 58.328125 C-17.99284347 61.93314545 -18.26873063 62.23570005 -21.45703125 64.578125 C-24.93703231 66.628504 -28.53536527 68.37584347 -32.17138672 70.12548828 C-46.92803841 77.26513894 -57.00124501 87.22155428 -66.7890625 100.3203125 C-68.52087855 102.48613598 -70.40286461 104.40126313 -72.39453125 106.328125 C-70.41453125 107.648125 -68.43453125 108.968125 -66.39453125 110.328125 C-67.9510518 115.6818715 -70.37628215 120.32963447 -73.01953125 125.203125 C-73.64988281 126.37875 -73.64988281 126.37875 -74.29296875 127.578125 C-75.32263345 129.49704557 -76.35800692 131.41290103 -77.39453125 133.328125 C-78.15765625 133.01875 -78.92078125 132.709375 -79.70703125 132.390625 C-81.58242802 131.64918907 -83.48137777 130.96584283 -85.39453125 130.328125 C-85.53955078 132.06642578 -85.53955078 132.06642578 -85.6875 133.83984375 C-86.25653262 138.3711771 -87.76241058 142.04178382 -89.70703125 146.140625 C-90.3425334 147.53132615 -90.9753379 148.92326312 -91.60546875 150.31640625 C-91.91194336 150.99268066 -92.21841797 151.66895508 -92.53417969 152.36572266 C-94.38930912 156.59714443 -95.9037639 160.95767662 -97.39453125 165.328125 C-92.50098194 166.99847012 -87.60306572 168.57930708 -82.63671875 170.01953125 C-63.36023157 175.64726099 -43.44669016 181.82804855 -27.39453125 194.328125 C-26.69328125 194.85019531 -25.99203125 195.37226563 -25.26953125 195.91015625 C-20.06161827 200.02223754 -17.2271545 204.27517309 -15.45703125 210.765625 C-15.3658906 215.96064183 -16.39950955 219.97388887 -19.8046875 223.9921875 C-45.6602333 247.83063398 -98.55506895 243.33940316 -130.61418152 242.10546875 C-165.20064793 240.6767111 -199.36709854 236.63186656 -233.39453125 230.328125 C-234.66200195 230.09367676 -235.92947266 229.85922852 -237.23535156 229.61767578 C-281.13795208 221.33405595 -334.21109406 210.89544147 -368.39453125 180.328125 C-372.16608773 242.28940998 -357.17503257 293.06220745 -316.71630859 340.69677734 C-315.39453125 342.328125 -315.39453125 342.328125 -313.39453125 345.328125 C-312.28406379 341.71910575 -312.25663805 338.27520675 -312.14453125 334.515625 C-311.22143936 317.04128078 -302.90777695 302.30889216 -290.39453125 290.328125 C-275.54073008 278.328125 -275.54073008 278.328125 -268.39453125 278.328125 C-267.04957297 285.42518162 -266.1536159 292.1006645 -266.39453125 299.328125 C-265.49089844 298.88339844 -264.58726562 298.43867188 -263.65625 297.98046875 C-262.47675781 297.41457031 -261.29726563 296.84867187 -260.08203125 296.265625 C-258.32439453 295.41291016 -258.32439453 295.41291016 -256.53125 294.54296875 C-253.39453125 293.328125 -253.39453125 293.328125 -250.39453125 294.328125 C-254.02453125 304.888125 -257.65453125 315.448125 -261.39453125 326.328125 C-254.46453125 325.998125 -247.53453125 325.668125 -240.39453125 325.328125 C-241.51953125 333.203125 -241.51953125 333.203125 -242.3671875 336.29296875 C-242.54443359 336.94716797 -242.72167969 337.60136719 -242.90429688 338.27539062 C-243.08669922 338.93216797 -243.26910156 339.58894531 -243.45703125 340.265625 C-243.64330078 340.94947266 -243.82957031 341.63332031 -244.02148438 342.33789062 C-244.47542182 344.00232793 -244.93444041 345.66537812 -245.39453125 347.328125 C-241.76453125 347.988125 -238.13453125 348.648125 -234.39453125 349.328125 C-234.39453125 353.618125 -234.39453125 357.908125 -234.39453125 362.328125 C-233.34265625 362.163125 -232.29078125 361.998125 -231.20703125 361.828125 C-225.28874613 361.07101105 -219.34931946 361.24642821 -213.39453125 361.328125 C-213.82765625 362.37613281 -214.26078125 363.42414063 -214.70703125 364.50390625 C-215.2698046 365.88270096 -215.8322896 367.26161339 -216.39453125 368.640625 C-216.68070313 369.33091797 -216.966875 370.02121094 -217.26171875 370.73242188 C-218.48363869 373.74358174 -219.39453125 376.04699484 -219.39453125 379.328125 C-217.25540763 380.97654306 -215.1635395 382.44478086 -212.89453125 383.890625 C-210.67481438 385.31890436 -208.53545998 386.77830434 -206.39453125 388.328125 C-206.39453125 388.988125 -206.39453125 389.648125 -206.39453125 390.328125 C-226.55221236 402.11033674 -246.24552523 409.46048452 -269.95703125 404.265625 C-285.06235066 399.56282111 -298.01540711 389.78154792 -305.99609375 376.078125 C-310.13461179 367.93981019 -312.04167118 360.4495579 -312.39453125 351.328125 C-313.46960938 350.956875 -313.46960938 350.956875 -314.56640625 350.578125 C-339.80470249 339.42307694 -356.79784856 303.48934755 -366.23779297 279.15429688 C-379.2806154 244.42591272 -381.22026218 207.7455937 -375.39453125 171.328125 C-375.26111328 170.47927734 -375.12769531 169.63042969 -374.99023438 168.75585938 C-373.47145492 159.3031574 -373.47145492 159.3031574 -372.39453125 155.328125 C-371.73453125 154.998125 -371.07453125 154.668125 -370.39453125 154.328125 C-370.39453125 154.988125 -370.39453125 155.648125 -370.39453125 156.328125 C-369.86085938 155.94140625 -369.3271875 155.5546875 -368.77734375 155.15625 C-359.7140954 148.82138437 -349.60803163 144.328125 -338.39453125 144.328125 C-338.98608456 143.00989198 -339.59324588 141.69865449 -340.20703125 140.390625 C-340.54347656 139.65972656 -340.87992187 138.92882812 -341.2265625 138.17578125 C-342.33053259 135.99783011 -342.33053259 135.99783011 -345.39453125 135.328125 C-352.66565177 134.30607995 -357.49331013 136.15172713 -363.39453125 140.328125 C-366.18307733 142.51883301 -368.91095328 144.76926078 -371.62890625 147.046875 C-381.08493335 154.84676176 -388.83936642 160.07364546 -401.37890625 159.6640625 C-411.07326789 158.58412066 -418.01863315 153.51749976 -424.39453125 146.328125 C-432.19270979 135.27533475 -433.35047796 124.50200135 -431.39453125 111.328125 C-427.78038892 94.59307464 -418.97149733 79.68361475 -404.51953125 70.203125 C-401.49418565 68.35969284 -398.88386255 66.99353236 -395.39453125 66.328125 C-395.39453125 66.988125 -395.39453125 67.648125 -395.39453125 68.328125 C-397.40625 69.9140625 -397.40625 69.9140625 -400.08203125 71.703125 C-413.54958523 80.76130204 -421.53364597 93.07255296 -425.70703125 108.765625 C-427.92446231 120.67086167 -426.54046887 131.48421858 -419.76953125 141.640625 C-415.41501965 146.98479833 -409.22753749 151.09041733 -402.39453125 152.390625 C-392.39836868 152.87236777 -385.50690094 147.72039496 -378.39453125 141.328125 C-376.68512542 139.7667984 -374.97678608 138.20430335 -373.26953125 136.640625 C-366.33458367 130.35582876 -359.55853055 125.31700078 -349.87890625 125.33203125 C-343.51702648 125.77964854 -338.66783436 126.92852727 -334.14453125 131.703125 C-331.17847973 136.15220228 -330.15345465 139.73860531 -330.12109375 145.07421875 C-330.10046875 146.15896484 -330.07984375 147.24371094 -330.05859375 148.36132812 C-330.03259778 150.62687732 -330.01434113 152.89252882 -330.00390625 155.15820312 C-329.8667924 161.57589321 -329.55226131 165.36700885 -325.39453125 170.328125 C-325.39453125 170.988125 -325.39453125 171.648125 -325.39453125 172.328125 C-324.59208984 172.71677734 -324.59208984 172.71677734 -323.7734375 173.11328125 C-322.04963269 173.99358223 -320.35167869 174.92510947 -318.671875 175.88671875 C-280.00445035 197.63997168 -235.05729432 208.45546213 -191.39453125 214.328125 C-190.41403809 214.46089844 -189.43354492 214.59367188 -188.42333984 214.73046875 C-173.77455095 216.5919604 -159.0128653 216.55335565 -144.26953125 216.640625 C-143.292724 216.65034332 -142.31591675 216.66006165 -141.30950928 216.67007446 C-119.86462944 217.46086434 -119.86462944 217.46086434 -101.39453125 208.328125 C-98.71939458 204.42688403 -99.27810075 200.40495907 -99.85546875 195.88671875 C-101.72359253 187.01989934 -107.45833946 180.4034265 -114.74609375 175.30859375 C-120.98710411 171.59652361 -129.53473633 172.55637741 -136.328125 174.1640625 C-145.29066796 176.57544653 -153.89666216 179.96890142 -162.44360352 183.56054688 C-174.47792434 188.58109015 -187.73213475 190.90654802 -200.45703125 186.765625 C-210.79718401 182.21345487 -215.02195118 175.15786352 -219.56542969 165.14892578 C-220.87712932 162.26828507 -222.25513029 159.42194814 -223.64453125 156.578125 C-224.1034375 155.61390625 -224.56234375 154.6496875 -225.03515625 153.65625 C-226.32367763 151.05842414 -226.32367763 151.05842414 -229.39453125 149.328125 C-234.39308279 148.7790111 -239.43627443 148.88536177 -244.26953125 150.328125 C-250.86202359 152.22142342 -258.35347945 152.37867017 -264.83203125 150.140625 C-265.67765625 149.5425 -266.52328125 148.944375 -267.39453125 148.328125 C-268.36390625 147.6475 -269.33328125 146.966875 -270.33203125 146.265625 C-277.64952856 139.87406343 -282.14165478 130.42304539 -286.70703125 122.015625 C-291.6391281 113.11578789 -296.80982129 105.08658005 -303.39453125 97.328125 C-303.98363281 96.58949219 -304.57273437 95.85085937 -305.1796875 95.08984375 C-318.55853813 78.80117218 -337.61689701 69.36937532 -357.65625 64.22265625 C-358.55988281 63.92746094 -359.46351563 63.63226563 -360.39453125 63.328125 C-360.72453125 62.668125 -361.05453125 62.008125 -361.39453125 61.328125 C-345.57441665 58.37449747 -328.67498789 66.01162191 -315.82421875 74.796875 C-310.22506736 78.81028594 -305.3179756 83.53035415 -300.39453125 88.328125 C-299.76289063 88.88628906 -299.13125 89.44445312 -298.48046875 90.01953125 C-287.90934592 99.61370197 -280.83825822 113.62977754 -273.89794922 125.87719727 C-269.95091614 132.76874201 -269.95091614 132.76874201 -264.39453125 138.328125 C-262.27793678 138.96105676 -262.27793678 138.96105676 -260.14453125 138.703125 C-259.45875 138.66960937 -258.77296875 138.63609375 -258.06640625 138.6015625 C-255.93245153 138.38317532 -253.80839658 138.06878864 -251.69140625 137.72265625 C-244.88231963 136.95954477 -238.06247968 137.80610325 -231.26855469 138.42456055 C-228.92841108 138.63754153 -226.58749963 138.83853882 -224.24609375 139.03710938 C-215.87583329 139.76067062 -207.53102139 140.60231972 -199.2010498 141.70271301 C-190.6405328 143.09901728 -190.6405328 143.09901728 -182.89453125 140.515625 C-182.06953125 139.79375 -181.24453125 139.071875 -180.39453125 138.328125 C-176.72504956 136.59491132 -173.47279918 135.328125 -169.39453125 135.328125 C-169.94914552 139.33059128 -171.94080377 141.36046087 -174.64453125 144.265625 C-175.46050781 145.14863281 -176.27648437 146.03164062 -177.1171875 146.94140625 C-178.74052683 148.64271042 -180.39980679 150.31002204 -182.08203125 151.953125 C-189.33539556 159.40252618 -193.25584421 167.9242444 -197.39453125 177.328125 C-193.26953324 178.88264947 -189.92235125 179.56051085 -185.51953125 179.453125 C-184.55273438 179.43507812 -183.5859375 179.41703125 -182.58984375 179.3984375 C-181.86539063 179.37523437 -181.1409375 179.35203125 -180.39453125 179.328125 C-180.18699219 178.80605469 -179.97945312 178.28398437 -179.765625 177.74609375 C-171.42070048 157.80905652 -156.50809856 146.45099135 -139.39453125 134.328125 C-138.7185791 133.84923828 -138.04262695 133.37035156 -137.34619141 132.87695312 C-136.71890137 132.43287109 -136.09161133 131.98878906 -135.4453125 131.53125 C-122.31563025 123.5617147 -122.31563025 123.5617147 -113.39453125 112.328125 C-117.34855166 112.328125 -118.5970753 113.75331442 -121.70703125 116.140625 C-131.43134558 123.5864389 -131.43134558 123.5864389 -135.76953125 123.015625 C-136.30578125 122.78875 -136.84203125 122.561875 -137.39453125 122.328125 C-136.05690357 118.31524196 -133.50637115 117.32704615 -130.01953125 115.328125 C-124.79942214 112.36135574 -124.79942214 112.36135574 -120.39453125 108.328125 C-121.71453125 107.338125 -123.03453125 106.348125 -124.39453125 105.328125 C-122.86779564 101.94581842 -120.89200147 99.22552551 -118.58203125 96.328125 C-117.58236328 95.0596875 -117.58236328 95.0596875 -116.5625 93.765625 C-114.3127138 91.23613565 -112.23266415 89.18159955 -109.39453125 87.328125 C-107.34765625 87.48046875 -107.34765625 87.48046875 -105.39453125 88.328125 C-104.688125 88.57691406 -103.98171875 88.82570313 -103.25390625 89.08203125 C-102.5578125 89.34886719 -101.86171875 89.61570312 -101.14453125 89.890625 C-100.438125 90.16003906 -99.73171875 90.42945313 -99.00390625 90.70703125 C-98.4728125 90.91199219 -97.94171875 91.11695313 -97.39453125 91.328125 C-97.30502197 90.78889404 -97.2155127 90.24966309 -97.12329102 89.6940918 C-96.15956393 86.56528805 -94.52318721 84.21381657 -92.734375 81.47265625 C-88.39057452 74.62823566 -85.1440615 67.46756413 -81.95703125 60.015625 C-75.33530841 44.8688805 -68.64278813 30.68707152 -57.39453125 18.328125 C-56.42580078 17.23757812 -56.42580078 17.23757812 -55.4375 16.125 C-43.49267814 3.37736934 -17.27959583 -10.8331241 0 0 Z M-105.39453125 99.328125 C-104.06337845 103.3215834 -102.42336437 103.6686431 -98.76953125 105.640625 C-93.7414041 108.46069631 -89.60350596 111.40612584 -85.39453125 115.328125 C-84.73453125 114.998125 -84.07453125 114.668125 -83.39453125 114.328125 C-87.00884068 107.09950614 -93.82203989 101.98240032 -101.39453125 99.328125 C-102.71453125 99.328125 -104.03453125 99.328125 -105.39453125 99.328125 Z M-105.39453125 117.328125 C-105.06453125 117.988125 -104.73453125 118.648125 -104.39453125 119.328125 C-104.06453125 118.668125 -103.73453125 118.008125 -103.39453125 117.328125 C-104.05453125 117.328125 -104.71453125 117.328125 -105.39453125 117.328125 Z M-100.39453125 120.328125 C-100.72453125 121.648125 -101.05453125 122.968125 -101.39453125 124.328125 C-100.40453125 123.338125 -99.41453125 122.348125 -98.39453125 121.328125 C-99.05453125 120.998125 -99.71453125 120.668125 -100.39453125 120.328125 Z M-91.39453125 125.328125 C-98.48523542 134.24580339 -104.85364291 143.38235787 -110.64453125 153.203125 C-111.2171167 154.1720166 -111.78970215 155.1409082 -112.37963867 156.13916016 C-115.24586095 160.46893064 -115.24586095 160.46893064 -116.39453125 165.328125 C-111.93953125 167.308125 -111.93953125 167.308125 -107.39453125 169.328125 C-106.77578125 167.33265625 -106.77578125 167.33265625 -106.14453125 165.296875 C-103.32116479 156.39718687 -100.41218232 147.68257124 -96.20703125 139.328125 C-95.88669922 138.68939453 -95.56636719 138.05066406 -95.23632812 137.39257812 C-93.30641211 133.69589363 -91.10066453 130.49628103 -88.39453125 127.328125 C-89.38453125 126.668125 -90.37453125 126.008125 -91.39453125 125.328125 Z M-115.39453125 127.328125 C-116.049375 127.885 -116.70421875 128.441875 -117.37890625 129.015625 C-123.17082103 133.85858199 -129.02919801 138.17038789 -135.3515625 142.30078125 C-148.11579701 150.80480912 -160.28940288 160.08371132 -168.39453125 173.328125 C-168.39453125 173.988125 -168.39453125 174.648125 -168.39453125 175.328125 C-160.43962053 174.41493372 -150.8795985 172.4398003 -145.4609375 166.046875 C-144.41390413 164.24108238 -143.39918814 162.41632569 -142.41015625 160.578125 C-139.8034378 156.37504408 -136.62275136 153.01046012 -133.20703125 149.453125 C-132.56056641 148.77846191 -131.91410156 148.10379883 -131.24804688 147.40869141 C-129.94132219 146.04963272 -128.6327313 144.69236587 -127.32226562 143.33691406 C-124.32115468 140.20961659 -121.38820972 137.02083285 -118.45703125 133.828125 C-117.46880472 132.75515793 -116.4805293 131.68223589 -115.4921875 130.609375 C-114.79996094 129.8565625 -114.10773438 129.10375 -113.39453125 128.328125 C-114.05453125 127.998125 -114.71453125 127.668125 -115.39453125 127.328125 Z M-112.39453125 138.328125 C-111.39453125 140.328125 -111.39453125 140.328125 -111.39453125 140.328125 Z M-117.39501953 144.18945312 C-117.9311084 144.73021484 -118.46719727 145.27097656 -119.01953125 145.828125 C-119.56206543 146.37404297 -120.10459961 146.91996094 -120.66357422 147.48242188 C-128.45947866 155.20814165 -128.45947866 155.20814165 -134.39453125 164.328125 C-130.10453125 164.328125 -125.81453125 164.328125 -121.39453125 164.328125 C-120.91242188 163.01457031 -120.4303125 161.70101562 -119.93359375 160.34765625 C-119.29561012 158.61196549 -118.65758722 156.87628917 -118.01953125 155.140625 C-117.70242188 154.27630859 -117.3853125 153.41199219 -117.05859375 152.52148438 C-115.55549088 148.43492346 -114.04637677 144.35762695 -112.39453125 140.328125 C-114.57199351 140.328125 -115.93582903 142.73634063 -117.39501953 144.18945312 Z M-217.39453125 148.328125 C-216.73453125 149.978125 -216.07453125 151.628125 -215.39453125 153.328125 C-209.45453125 153.988125 -203.51453125 154.648125 -197.39453125 155.328125 C-196.73453125 154.008125 -196.07453125 152.688125 -195.39453125 151.328125 C-202.70527807 149.66218048 -209.91618158 148.81640213 -217.39453125 148.328125 Z M-363.39453125 160.328125 C-365.68148509 163.11820101 -365.68148509 163.11820101 -365.26953125 166.140625 C-362.87053808 174.87981442 -355.75711967 180.55040503 -348.3515625 185.265625 C-296.7051737 214.21094573 -232.04121701 224.27247868 -173.83203125 230.578125 C-173.06474701 230.66129974 -172.29746277 230.74447449 -171.50692749 230.83016968 C-166.47296706 231.3696267 -161.43613257 231.86576085 -156.39453125 232.328125 C-155.26466797 232.43415039 -154.13480469 232.54017578 -152.97070312 232.64941406 C-140.9556151 233.61435636 -128.9023921 233.54989976 -116.85595703 233.56835938 C-113.06259814 233.57801537 -109.26979384 233.60910094 -105.4765625 233.640625 C-62.85636292 234.48541951 -62.85636292 234.48541951 -25.39453125 217.328125 C-23.96149061 214.46204371 -24.0880897 212.51511717 -24.39453125 209.328125 C-29.4755715 199.16604449 -39.94924322 193.40132796 -49.62988281 188.26757812 C-51.22653744 187.41756056 -52.80766802 186.53853944 -54.38671875 185.65625 C-62.77442097 181.17427171 -71.58354995 177.82447867 -80.45703125 174.453125 C-81.10576202 174.20597748 -81.7544928 173.95882996 -82.42288208 173.70419312 C-90.74633851 170.45863012 -90.74633851 170.45863012 -99.39453125 168.328125 C-100.05453125 170.638125 -100.71453125 172.948125 -101.39453125 175.328125 C-96.7910947 177.09910727 -92.16960413 178.75436473 -87.48828125 180.30859375 C-46.0108356 194.13440897 -46.0108356 194.13440897 -37.39453125 207.328125 C-36.26431696 211.35451342 -35.92849823 213.32948282 -37.70703125 217.140625 C-44.71832755 226.22934242 -61.42644548 228.46194178 -72.31512451 230.06434631 C-80.09151595 231.05080379 -87.8336167 231.49192011 -95.66796875 231.53125 C-96.6170108 231.53826431 -97.56605286 231.54527863 -98.54385376 231.55250549 C-101.61912828 231.5699909 -104.6942087 231.57636655 -107.76953125 231.578125 C-108.83220215 231.57879974 -109.89487305 231.57947449 -110.98974609 231.58016968 C-130.93107268 231.56019699 -150.57932886 230.50665667 -170.39453125 228.328125 C-171.19914795 228.24091187 -172.00376465 228.15369873 -172.83276367 228.06384277 C-319.68983149 212.07739786 -319.68983149 212.07739786 -347.0390625 178.296875 C-348.98859369 174.90638598 -349.39023306 172.58171802 -349.45703125 168.640625 C-348.17809819 164.6533631 -346.6217333 162.95491737 -343.39453125 160.328125 C-342.69457031 160.05871094 -341.99460937 159.78929687 -341.2734375 159.51171875 C-339.13939321 158.46820434 -339.13939321 158.46820434 -338.78515625 155.9453125 C-338.71554687 154.58792969 -338.71554687 154.58792969 -338.64453125 153.203125 C-338.5878125 152.29304687 -338.53109375 151.38296875 -338.47265625 150.4453125 C-338.446875 149.74664062 -338.42109375 149.04796875 -338.39453125 148.328125 C-346.55474188 148.328125 -357.74512943 154.77210172 -363.39453125 160.328125 Z M-210.39453125 162.328125 C-209.13647748 166.83615101 -207.4904596 169.8194062 -204.39453125 173.328125 C-203.40453125 170.028125 -202.41453125 166.728125 -201.39453125 163.328125 C-202.37720984 162.12251316 -202.37720984 162.12251316 -204.2421875 162.23046875 C-206.29296875 162.26302083 -208.34375 162.29557292 -210.39453125 162.328125 Z M-339.39453125 167.328125 C-340.05453125 167.988125 -340.71453125 168.648125 -341.39453125 169.328125 C-341.06453125 170.318125 -340.73453125 171.308125 -340.39453125 172.328125 C-339.07453125 171.668125 -337.75453125 171.008125 -336.39453125 170.328125 C-336.72453125 169.338125 -337.05453125 168.348125 -337.39453125 167.328125 C-338.05453125 167.328125 -338.71453125 167.328125 -339.39453125 167.328125 Z M-94.39453125 183.328125 C-93.84700607 186.61327606 -93.03919559 189.41833424 -91.39453125 192.328125 C-88.34032289 194.42189048 -84.9190911 195.26987148 -81.39453125 196.328125 C-78.90445539 197.18100341 -76.42815677 198.04877228 -73.95703125 198.953125 C-73.29203613 199.19611328 -72.62704102 199.43910156 -71.94189453 199.68945312 C-66.11152682 201.89988975 -60.59940806 204.61883119 -55.08203125 207.515625 C-54.26355713 207.94375488 -53.44508301 208.37188477 -52.60180664 208.81298828 C-46.77789926 211.93908775 -46.77789926 211.93908775 -44.77661133 213.9699707 C-43.47973209 215.56176037 -43.47973209 215.56176037 -41.39453125 215.328125 C-40.50896381 213.63838774 -40.50896381 213.63838774 -40.39453125 211.328125 C-46.29308931 198.68835773 -64.58552217 192.82125709 -76.83203125 188.265625 C-85.40891772 184.78126204 -85.40891772 184.78126204 -94.39453125 183.328125 Z M-290.95703125 302.453125 C-295.66772445 307.30309087 -299.16592988 312.64419709 -302.41845703 318.55712891 C-303.0771293 319.75222861 -303.75041315 320.93937508 -304.43701172 322.11865234 C-310.26199361 332.21257201 -311.34206458 339.87898967 -309.39453125 351.328125 C-309.21277344 352.41351563 -309.03101563 353.49890625 -308.84375 354.6171875 C-306.0183187 368.03365269 -298.56162765 379.45577575 -287.14453125 387.078125 C-272.01818587 396.10784087 -255.64267703 400.22616632 -238.27612305 396.09521484 C-232.47104518 394.55117931 -227.35827552 392.71799914 -222.39453125 389.328125 C-222.39453125 388.668125 -222.39453125 388.008125 -222.39453125 387.328125 C-224.18418672 385.96535414 -224.18418672 385.96535414 -226.39453125 384.703125 C-227.13703125 384.25710938 -227.87953125 383.81109375 -228.64453125 383.3515625 C-229.22203125 383.01382813 -229.79953125 382.67609375 -230.39453125 382.328125 C-229.06119792 378.328125 -227.72786458 374.328125 -226.39453125 370.328125 C-228.31111925 370.30100347 -230.22781855 370.28167403 -232.14453125 370.265625 C-233.211875 370.25402344 -234.27921875 370.24242187 -235.37890625 370.23046875 C-238.59350222 370.2284034 -238.59350222 370.2284034 -242.39453125 371.328125 C-242.39453125 366.378125 -242.39453125 361.428125 -242.39453125 356.328125 C-249.32453125 355.833125 -249.32453125 355.833125 -256.39453125 355.328125 C-256.02199219 353.97976563 -255.64945313 352.63140625 -255.265625 351.2421875 C-254.78738623 349.47926813 -254.30954202 347.7162417 -253.83203125 345.953125 C-253.58517578 345.06367188 -253.33832031 344.17421875 -253.08398438 343.2578125 C-252.85517578 342.40703125 -252.62636719 341.55625 -252.390625 340.6796875 C-252.17591553 339.89416504 -251.96120605 339.10864258 -251.73999023 338.29931641 C-251.18103529 336.25936801 -251.18103529 336.25936801 -252.39453125 334.328125 C-262.78953125 334.823125 -262.78953125 334.823125 -273.39453125 335.328125 C-272.81703125 333.61882812 -272.23953125 331.90953125 -271.64453125 330.1484375 C-270.89437395 327.91671953 -270.14438251 325.68494581 -269.39453125 323.453125 C-268.8221875 321.76123047 -268.8221875 321.76123047 -268.23828125 320.03515625 C-267.87734375 318.95878906 -267.51640625 317.88242187 -267.14453125 316.7734375 C-266.809375 315.77844238 -266.47421875 314.78344727 -266.12890625 313.75830078 C-265.2981077 311.43216129 -265.2981077 311.43216129 -265.39453125 309.328125 C-268.15729302 309.85080966 -270.72061885 310.43682087 -273.39453125 311.328125 C-273.45511719 310.13574219 -273.51570313 308.94335938 -273.578125 307.71484375 C-273.66254274 306.14842575 -273.74719012 304.58202012 -273.83203125 303.015625 C-273.87134766 302.22994141 -273.91066406 301.44425781 -273.95117188 300.63476562 C-273.99306641 299.87744141 -274.03496094 299.12011719 -274.078125 298.33984375 C-274.13311157 297.29509888 -274.13311157 297.29509888 -274.18920898 296.22924805 C-274.35034278 294.1064678 -274.35034278 294.1064678 -275.39453125 291.328125 C-280.90276306 291.328125 -287.1266711 298.85551243 -290.95703125 302.453125 Z " fill="#000000" transform="translate(466.39453125,54.671875)"/>
<path d="M0 0 C0.33 0 0.66 0 1 0 C1.85604314 17.12086273 -6.86057842 33.14622635 -16 47 C-16.4232959 47.64549805 -16.8465918 48.29099609 -17.28271484 48.95605469 C-31.51760041 70.36776575 -53.85471279 98.49651076 -79 107 C-79.99 107 -80.98 107 -82 107 C-82.07476562 107.556875 -82.14953125 108.11375 -82.2265625 108.6875 C-83.71098145 117.30295117 -88.30260939 123.2151281 -95.0078125 128.68359375 C-106.65548454 136.38019273 -122.08952052 136.51441035 -135.4765625 134.46875 C-138.07474618 133.79541789 -140.50673984 132.98863185 -143 132 C-144.06541016 131.65195312 -144.06541016 131.65195312 -145.15234375 131.296875 C-154.48967128 127.6408005 -159.01324541 117.27880301 -163.5625 108.9375 C-164.10100586 107.95463013 -164.10100586 107.95463013 -164.65039062 106.9519043 C-165.50028725 105.33459852 -166.25895645 103.66998704 -167 102 C-166.505 101.01 -166.505 101.01 -166 100 C-162.04 100.66 -158.08 101.32 -154 102 C-154.55880859 100.49759766 -154.55880859 100.49759766 -155.12890625 98.96484375 C-155.60757872 97.62268369 -156.08539809 96.28021916 -156.5625 94.9375 C-156.80935547 94.28072266 -157.05621094 93.62394531 -157.31054688 92.94726562 C-158.93383263 88.30604015 -159.24171192 84.89821032 -158 80 C-155.70691037 78.85345518 -154.20090344 78.80270883 -151.6484375 78.68359375 C-150.79765625 78.64169922 -149.946875 78.59980469 -149.0703125 78.55664062 C-148.18085938 78.51732422 -147.29140625 78.47800781 -146.375 78.4375 C-145.4778125 78.39431641 -144.580625 78.35113281 -143.65625 78.30664062 C-141.43765717 78.20043139 -139.2189512 78.09838806 -137 78 C-135.60395436 75.19444205 -134.74319407 73.04773853 -135.50732422 69.93017578 C-136.4171223 67.60502195 -137.39919312 65.33320743 -138.4375 63.0625 C-141.11282884 57.17677654 -142.57583633 53.39704371 -141 47 C-134.88514973 46.90293888 -129.06696699 47.22959149 -123 48 C-122.34 46.02 -121.68 44.04 -121 42 C-113.82376431 42.15600512 -109.51938825 45.68199279 -104 50 C-103.30648437 50.515625 -102.61296875 51.03125 -101.8984375 51.5625 C-89.44432829 61.48609299 -82.55922432 76.26530688 -80.6875 91.8125 C-80.43001642 94.20728686 -80.20641608 96.60002799 -80 99 C-78.96220881 98.15758999 -77.92445728 97.31513113 -76.88671875 96.47265625 C-76.2210791 95.93229736 -75.55543945 95.39193848 -74.86962891 94.83520508 C-73.40382155 93.6444211 -71.93866142 92.45284 -70.47412109 91.26049805 C-67.27330223 88.65486114 -64.07268901 86.05022652 -60.83984375 83.484375 C-50.67009411 75.34857529 -41.95394192 66.30709775 -34 56 C-33.25492188 55.04480469 -32.50984375 54.08960938 -31.7421875 53.10546875 C-23.03174878 41.44842948 -16.13043181 28.65761869 -9 16 C-8.01315021 14.25513515 -7.02618379 12.51033626 -6.0390625 10.765625 C-4.01572586 7.18278452 -2.00333536 3.59405964 0 0 Z M-116 53 C-116.66 54.65 -117.32 56.3 -118 58 C-122.69141505 57.43379473 -127.34065675 56.79435795 -132 56 C-131.55527344 57.01320313 -131.11054688 58.02640625 -130.65234375 59.0703125 C-130.07994709 60.42154397 -129.50837591 61.77312533 -128.9375 63.125 C-128.64294922 63.79015625 -128.34839844 64.4553125 -128.04492188 65.140625 C-126.24013559 69.47211209 -125.55453121 72.34964566 -127 77 C-128.3046875 79.30078125 -128.3046875 79.30078125 -129.875 81.3125 C-130.64457031 82.32763672 -130.64457031 82.32763672 -131.4296875 83.36328125 C-134.50696283 86.57069012 -138.48085981 86.27095068 -142.6875 86.5625 C-143.86699219 86.64628906 -145.04648437 86.73007812 -146.26171875 86.81640625 C-147.16535156 86.87699219 -148.06898438 86.93757813 -149 87 C-147.75811052 93.73652109 -147.75811052 93.73652109 -145.875 100.3125 C-144.97210134 103.08568873 -144.67852276 105.10670481 -145 108 C-147.5654594 110.5654594 -149.47686668 110.54046087 -153 111 C-152.53388442 113.18677626 -152.05310948 115.36683655 -151.5390625 117.54296875 C-151 120 -151 120 -150.5 123.875 C-149.34723404 127.0437759 -149.34723404 127.0437759 -147.10546875 128.0625 C-133.96113696 132.47933524 -119.15917727 131.91609333 -106.453125 126.3828125 C-97.49059334 121.33068478 -92.33582757 114.7860919 -89.42578125 105.0859375 C-86.95224773 92.96789254 -90.47203863 80.2697953 -97 70 C-101.89223595 63.77011636 -107.55875441 57.6648829 -114 53 C-114.66 53 -115.32 53 -116 53 Z " fill="#000000" transform="translate(435,319)"/>
<path d="M0 0 C4.38298661 4.64080935 4.79921356 10.21586073 5.21484375 16.3671875 C5.08782366 20.44287557 3.9897718 22.3852282 1.125 25.25 C-3.25873454 28.1724897 -6.65277599 28.809524 -11.875 28.25 C-17.00018561 26.40493318 -19.88021517 23.78495989 -22.875 19.25 C-24.56113454 14.2536627 -24.01902791 9.8740421 -21.9609375 5.078125 C-19.80306645 1.44545 -16.83930817 -0.83332285 -13 -2.625 C-8.01731777 -2.91809895 -4.23727301 -2.57920966 0 0 Z M-13.375 7.8125 C-15.17786341 10.27881278 -15.17786341 10.27881278 -14.9375 13.8125 C-14.16681561 17.33082091 -14.16681561 17.33082091 -11.625 19.3125 C-8.94764196 20.48207635 -8.94764196 20.48207635 -6.375 19.75 C-3.30441772 17.90765063 -1.13068078 16.0364292 1.125 13.25 C1.20848752 10.41142432 0.41142631 9.5584591 -1.5 7.5 C-5.69776719 5.29064885 -9.34875426 5.29609641 -13.375 7.8125 Z " fill="#000000" transform="translate(456.875,69.75)"/>
<path d="M0 0 C0.66 0.33 1.32 0.66 2 1 C2.50419714 2.9002112 2.92920393 4.82176208 3.3125 6.75 C4.53322988 11.83234569 5.41955481 15.04815754 10 18 C13.6773916 19.17109631 16.84552249 19.39421183 20.5625 18.125 C23.622998 15.45687354 25.86778471 12.40820847 28.29296875 9.1640625 C30.27032311 6.65730205 32.33102591 4.75389726 35 3 C35.66 3 36.32 3 37 3 C34.50012517 11.86319257 30.14300197 20.20499187 22 25 C17.0256582 26.51257415 13.15297778 26.34022295 8.1875 24.875 C2.26738903 21.39258178 -1.01114089 17.62953036 -3 11 C-3.03546704 7.91436728 -2.80810365 4.98329994 -2 2 C-1.34 1.34 -0.68 0.68 0 0 Z " fill="#000000" transform="translate(61,160)"/>
</svg>
